<svg width="843" height="395" viewBox="0 0 843 395" fill="none" xmlns="http://www.w3.org/2000/svg">
<path d="M2 239.59H134.083C136.143 239.59 137.993 238.326 138.741 236.406L202.266 73.5102C203.99 69.0915 210.322 69.3305 211.707 73.8666L307.916 388.94C309.382 393.742 316.22 393.628 317.526 388.779L420.663 5.69836C421.953 0.907433 428.68 0.717633 430.238 5.42821L527.53 299.598C528.881 303.682 534.414 304.268 536.59 300.558L606.222 181.827C607.712 179.286 611.066 178.577 613.456 180.299L695.191 239.148C696.042 239.76 697.064 240.09 698.113 240.09H840.5" stroke="black" stroke-width="4" stroke-linecap="round"/>
</svg>
